<svg xmlns="http://www.w3.org/2000/svg" width="225.846" height="209.976" viewBox="0 0 225.846 209.976">
  <g id="Group_38" data-name="Group 38" transform="translate(-2773.917 -4532.922)">
    <path id="Path_51" data-name="Path 51" d="M352.173,507.075c-.6,6.353-1.2,12.705-1.564,19.487.238.428.315.392-.025.42a8.881,8.881,0,0,0-.742,2.361c-1.068,3.347-1.949,6.382-2.829,9.417-4,7.283-8,14.567-12.437,22.325-2.494,3.275-4.554,6.075-6.614,8.875-5.117,4.871-10.233,9.743-15.917,14.923-2.455,2.162-4.342,4.015-6.23,5.868-8.833,6.132-17.822,12.055-26.436,18.482-4.435,3.309-7.832,3.725-12.5.182-8.688-6.6-17.9-12.5-27.353-19.091-2.256-2-4.06-3.6-5.864-5.2-5.253-5.057-10.507-10.114-16.154-15.673-2.588-3.417-4.782-6.331-6.976-9.245-3.99-7.263-7.98-14.526-12.209-22.449-.89-3.5-1.541-6.348-2.192-9.193-.989-7.25-1.979-14.5-2.777-22.509.205-5.549.22-10.339.234-15.129,0-3.485.433-7.035-.088-10.439-.866-5.665,1.742-8.277,6.688-10.161,6.179-2.353,11.948-5.834,18.189-7.964,5.9-2.015,6.814-5.805,5.83-11.91-5.95,2.054-13.442,2.458-16.846,6.395-3.857,4.461-8.691,4.352-13.082,8.191V447.666c1.927-.75,3.9-1.521,6.569-2.51,3.056-.959,5.425-1.7,7.793-2.439,20.075-6.335,40.122-12.763,60.261-18.892a15.868,15.868,0,0,1,8.6.062c13.229,3.869,26.324,8.191,39.526,12.156,3.125.939,5.122,2.133,4.305,5.762a7.117,7.117,0,0,0-.03,1.494c-.1,18.216-.1,18.216,18.743,23.616a50.248,50.248,0,0,0-.121-7.836c-.2-1.232-1.541-3.064-2.593-3.237-4.62-.76-5.3-3.568-4.845-7.493a64.406,64.406,0,0,0,.044-6.978c1.871.59,3.328,1.049,5.439,1.722,2.739.817,4.823,1.421,6.908,2.024,7.68,1.979,7.613,7.74,7.393,14.094-.371,10.754-.154,21.528-.287,33.2,0,5.49.093,10.078.19,14.665m-89.184,84.578c2.68,1.948,5.283,4.019,8.087,5.77a3.912,3.912,0,0,0,3.423.242c4.687-3.085,9.206-6.425,14.388-9.9,1.714-1.3,3.427-2.6,5.741-4.161,4.327-3.764,8.653-7.529,13.672-11.532,1.865-1.735,3.729-3.47,6.017-5.715,4.16-5.068,8.32-10.137,12.929-15.769,1.233-2.7,2.467-5.4,4.162-8.554,5.366-8.24,7.085-17.583,8.455-27.959-.021-4.424-.041-8.847-.039-14.182.059-5.155-.063-10.321.249-15.461.171-2.819-.818-4.155-3.375-5.15-6.186-2.409-12.293-5.032-18.376-7.7-6.135-2.687-9.02-7.578-9.133-14.189a51.926,51.926,0,0,1,.02-6.978c.37-3.108-1.016-4.38-3.825-5.219-10.022-2.994-19.979-6.206-29.974-9.292a6.311,6.311,0,0,0-3.332-.481c-11.7,3.583-23.36,7.3-35.146,11.012,0,3.283-.2,6.115.038,8.908.739,8.521-3.134,13.843-10.91,16.925-5.863,2.324-11.635,4.909-17.295,7.689a5.514,5.514,0,0,0-2.737,3.88c-.188,6.637.067,13.286.055,20.87.044,2.828.089,5.656-.012,9.3a66.742,66.742,0,0,0,8.018,28.735c1.53,2.393,3.06,4.787,4.772,7.884,4.637,5.477,9.273,10.953,14.117,17.071,1.889,1.725,3.779,3.45,5.969,5.825,5.022,3.5,10.044,7.006,15.414,11.159,2.882,1.35,6.238,2.119,7.1,5.932C261.51,590.824,262.355,590.853,262.988,591.652Z" transform="translate(2614 4131)" fill="#354452"/>
    <path id="Path_60" data-name="Path 60" d="M347.318,538.66a52.148,52.148,0,0,1,2.856-9.481,5.237,5.237,0,0,0,.749-2.226s-.077.036-.1,0c.841-.421,1.945-.587,2.538-1.226a86,86,0,0,0,22.448-47.455c.276-1.951-.6-4.339-1.62-6.142-1.886-3.335-2.1-6.351.713-9.05,2.676-2.57,5.743-2.592,8.479-.076,2.807,2.58,3.057,5.519,1.157,8.988a29.874,29.874,0,0,0-3.387,8.9C377.017,504.247,366.351,523.728,347.318,538.66Z" transform="translate(2614 4131)" fill="#3eb479"/>
    <path id="Path_61" data-name="Path 61" d="M193.236,491.038a117.439,117.439,0,0,1,.064,14.576c-12.156-20.282-15.3-42.289-11.072-65.57a25.832,25.832,0,0,0-.343-8.548c-.587-3.616.4-6.317,3.712-7.81,3.373-1.52,6.225-.443,8.139,2.645,1.961,3.164,1.64,6.742-1.591,8.228-3.937,1.81-3.938,4.931-4.555,8.113-3.05,15.734-1.335,31.092,3.716,46.168A4.98,4.98,0,0,0,193.236,491.038Z" transform="translate(2614 4131)" fill="#3eb479"/>
    <path id="Path_62" data-name="Path 62" d="M195.747,528.55a61.2,61.2,0,0,1,2.344,8.941c-14.111-9.524-22.875-23.414-28.743-39.233-2.119-5.712-2.877-11.916-4.549-17.812a40.988,40.988,0,0,0-3.644-8.754c-1.731-3.093-1.861-6.253,1-7.935a10.454,10.454,0,0,1,8.049-.793,4.892,4.892,0,0,1,2.13,7.588c-3.6,4.206-2.149,8.356-1.333,12.633A82.638,82.638,0,0,0,195.747,528.55Z" transform="translate(2614 4131)" fill="#3eb479"/>
    <path id="Path_63" data-name="Path 63" d="M352.444,506.882c-.369-4.394-.466-8.981-.495-13.972.868-1.232,2.063-1.923,2.407-2.911,5.658-16.2,7.335-32.746,3.489-49.6a11.581,11.581,0,0,0-3.652-5.361c-2.655-2.414-3.992-4.962-2.206-8.314,1.585-2.974,4.137-4.409,7.483-3.145,3.615,1.366,4.854,4.124,4.347,7.971a27.123,27.123,0,0,0-.171,8.143C367.855,463.334,364.727,485.723,352.444,506.882Z" transform="translate(2614 4131)" fill="#3cb278"/>
    <path id="Path_64" data-name="Path 64" d="M328.359,569.988a82.652,82.652,0,0,1,6.024-8.595c2.713-.948,5.485-1.255,7.6-2.6,7.127-4.524,14.078-9.332,20.972-14.209,2.615-1.85,4.3-4.2,3.862-7.969-.388-3.341,1.794-5.824,5.247-6.129,3.5-.309,6.165,1.349,6.994,5,.824,3.629-.869,5.95-4.069,7.611a30.331,30.331,0,0,0-7.273,4.639A88.6,88.6,0,0,1,328.359,569.988Z" transform="translate(2614 4131)" fill="#3ab678"/>
    <path id="Path_65" data-name="Path 65" d="M210.311,560.512a86.338,86.338,0,0,1,6.914,8.762c-14.924-3.409-27.6-11.3-38.978-21.589a28.734,28.734,0,0,0-6.915-4.377c-3.364-1.605-4.807-4.178-4.117-7.623.661-3.3,3-5.12,6.5-4.943,3.594.181,5.933,2.607,5.7,5.74-.318,4.22,2.006,6.429,4.586,8.659C191.78,551.863,199.914,558.052,210.311,560.512Z" transform="translate(2614 4131)" fill="#3db37a"/>
    <path id="Path_66" data-name="Path 66" d="M306.2,590.926a39.708,39.708,0,0,1,5.551-5.806c11.553,1.618,21.924-1.759,32.1-5.978.927-.384,1.495-1.988,1.93-3.139,1.425-3.77,4.12-5.187,7.876-4.107,3.78,1.086,5.4,3.966,4.536,7.705-.935,4.043-3.683,5.567-7.909,4.748a9.441,9.441,0,0,0-5.15.524A81.186,81.186,0,0,1,306.2,590.926Z" transform="translate(2614 4131)" fill="#3fb67c"/>
    <path id="Path_67" data-name="Path 67" d="M233.175,585.256a36.021,36.021,0,0,1,6.021,4.957c-12.861,1.9-25.266-.459-37.415-4.946a20.607,20.607,0,0,0-7.107-1.146c-3.677.018-6.234-1.236-6.867-4.983-.639-3.787,1.008-6.57,4.714-7.668,3.658-1.084,5.772,1.047,7.66,3.962,1.212,1.871,2.94,4.267,4.829,4.7C214.162,582.2,223.446,583.691,233.175,585.256Z" transform="translate(2614 4131)" fill="#3fb67c"/>
    <path id="Path_68" data-name="Path 68" d="M344.908,444.7a28.564,28.564,0,0,1-6.583-1.589c-1.031-10.128-5.509-18.621-10.738-26.764-.648-1.01-2.463-1.356-3.8-1.82-3.513-1.219-5.212-3.7-4.53-7.277.661-3.461,2.877-5.672,6.7-5.282,3.723.38,5.264,2.856,5.893,6.352a42.336,42.336,0,0,0,2.185,7.257C337.622,425.161,341.3,434.716,344.908,444.7Z" transform="translate(2614 4131)" fill="#3fb67c"/>
    <path id="Path_69" data-name="Path 69" d="M208.318,442.431a38.69,38.69,0,0,1-7.166,2.514c1.238-10.5,5.259-20.09,10.57-29.246a19.68,19.68,0,0,0,2.2-7.308c.46-3.682,2.174-6,5.838-6.288,3.693-.292,6.08,1.807,6.717,5.351.606,3.372-1.1,5.492-4.257,6.989-2.193,1.039-4.853,2.64-5.713,4.666A240.443,240.443,0,0,0,208.318,442.431Z" transform="translate(2614 4131)" fill="#3fb67c"/>
    <path id="Path_71" data-name="Path 71" d="M278.666,571.867c10.978-7.935,19.9-17.567,25.526-30.091,3.3-7.353,3.9-14.716,1.247-22.329-5.149-14.755-12.7-27.878-25.713-37.159-5.923-4.224-8.017-4.292-13.854.04C251.437,493.041,243.182,507.8,239.141,525c-1.975,8.4,2.189,15.169,8.528,22.292-4.941-1.123-8.624-1.672-12.116-2.809-9.36-3.048-12.614-8.461-11.317-18.225a7.937,7.937,0,0,1,.3-1.466c8.345-24.982,18.9-48.8,38.021-67.64,8.885-8.754,12.513-8.753,21.135.282a112.75,112.75,0,0,1,16.418,21.239c6.774,11.8,12.268,24.343,18.185,36.628,4.929,10.234,4.469,20.274-1.536,30-.422.684-.654,1.485-.363,3.4,4.612-1.975,9.225-3.95,14.192-6.064a39.779,39.779,0,0,1-3.944,8.2c-10.622,2.6-20.52,5.149-25.491,16.033h12.738a59.342,59.342,0,0,1-6.375,5.354c-9.81-1.458-17.784.268-24.143,7.787l10.652,3.857a46.036,46.036,0,0,1-5.8,3.92,28.85,28.85,0,0,1-7.3-2.986,102.361,102.361,0,0,0,.255-10.267C281.12,573.59,279.546,572.751,278.666,571.867Z" transform="translate(2614 4131)" fill="#38b474"/>
    <path id="Path_72" data-name="Path 72" d="M214.042,542.4c12.05,4.993,24.4,9.417,37.9,8.5,5.238-.356,10.418-1.563,16.316-2.492-11.461-11.229-25.746-20.283-17.145-39.927,1.812,3.779,2.873,7.057,4.762,9.756,10.4,14.857,23.272,16.6,34.227-.25,1.86-2.86,2.934-6.23,4.311-9.235,5.37,7.94,3.857,15.373-1.235,23.041-12.595,18.964-35.07,27.9-59,22.735-5-1.078-9.815-3.008-15.11-4.577A59.542,59.542,0,0,1,214.042,542.4Z" transform="translate(2614 4131)" fill="#3ab678"/>
    <path id="Path_73" data-name="Path 73" d="M232.872,567.376c10.034-1.69,20.475-1.994,30.215-4.762,7.923-2.252,15.03-7.415,22.447-11.383,1.686-.9,3.159-2.2,5.088-2.856a56.066,56.066,0,0,1-16.855,15.254c-10.517,6.449-22.223,8.4-34.7,9.141A42.586,42.586,0,0,1,232.872,567.376Z" transform="translate(2614 4131)" fill="#3fb67c"/>
    <path id="Path_76" data-name="Path 76" d="M275.088,583.7c-3.872,2.326-7.745,4.651-11.938,7.122-.8.032-1.64,0-1.688-.208-.865-3.813-4.221-4.582-7.277-6.258a138.231,138.231,0,0,1,14.9-7.24C275.076,576.514,273.641,581.251,275.088,583.7Z" transform="translate(2614 4131)" fill="#3a4957"/>
    <path id="Path_78" data-name="Path 78" d="M339.73,514.494c-2.833,3.411-5.516,6.416-8.247,9.377-1.217,1.32-2.531,2.55-3.825,3.844-1.752-5.686-1.463-5.488,1.579-9.916,3.647-5.309,6.738-11,10.316-16.762C339.82,505.223,339.841,509.646,339.73,514.494Z" transform="translate(2614 4131)" fill="#3ab678"/>
    <path id="Path_79" data-name="Path 79" d="M206.136,504.235a188.276,188.276,0,0,1,12.646,16c1.089,1.584.6,4.253.833,6.425l-1.38.613c-3.841-4.568-7.683-9.135-11.772-13.894A88.981,88.981,0,0,1,206.136,504.235Z" transform="translate(2614 4131)" fill="#38b474"/>
    <path id="Path_84" data-name="Path 84" d="M275.448,583.8c-1.807-2.549-.372-7.286-6-6.758,2.593-1.708,5.572-3.38,8.885-5.114,1.215.822,2.789,1.662,2.849,2.6a102.361,102.361,0,0,1-.255,10.267A20.371,20.371,0,0,1,275.448,583.8Z" transform="translate(2614 4131)" fill="#3eb479"/>
  </g>
</svg>
